<svg xmlns="http://www.w3.org/2000/svg" viewBox="0 0 18 18"><g stroke-linecap="round" stroke-width="1.5" fill="none" stroke="currentColor" stroke-linejoin="round" class="nc-icon-wrapper"><path d="M14.25 5.25H7.25C6.14543 5.25 5.25 6.14543 5.25 7.25V14.25C5.25 15.3546 6.14543 16.25 7.25 16.25H14.25C15.3546 16.25 16.25 15.3546 16.25 14.25V7.25C16.25 6.14543 15.3546 5.25 14.25 5.25Z" fill="currentColor" fill-opacity="0.3" data-color="color-2" data-stroke="none" stroke="none"></path> <path d="M14.25 5.25H7.25C6.14543 5.25 5.25 6.14543 5.25 7.25V14.25C5.25 15.3546 6.14543 16.25 7.25 16.25H14.25C15.3546 16.25 16.25 15.3546 16.25 14.25V7.25C16.25 6.14543 15.3546 5.25 14.25 5.25Z"></path> <path d="M2.80103 11.998L1.77203 5.074C1.61003 3.981 2.36403 2.964 3.45603 2.802L10.38 1.773C11.313 1.634 12.19 2.163 12.528 3.001"></path></g></svg>