<svg xmlns="http://www.w3.org/2000/svg" viewBox="0 0 18 18"><g stroke-linecap="round" stroke-width="1.5" fill="none" stroke="currentColor" stroke-linejoin="round" class="nc-icon-wrapper"><path d="M14 10.75L16.75 12V14.94C16.75 16.48 14 17.25 14 17.25C14 17.25 11.25 16.48 11.25 14.94V12L14 10.75Z" fill="currentColor" fill-opacity="0.3" data-color="color-2" data-stroke="none" stroke="none"></path> <path fill-rule="evenodd" clip-rule="evenodd" d="M9.38606 1.25C8.63278 1.25 8.02213 1.86066 8.02213 2.61394V3.03214C7.7951 2.71039 7.42046 2.5 6.99999 2.5C6.31399 2.5 5.74999 3.06 5.74999 3.75V11.215L3.98199 8.963C3.55599 8.42 2.76699 8.328 2.22699 8.752C1.68699 9.176 1.62299 9.883 2.01599 10.507L3.97599 13.521C5.08299 15.224 6.97599 16.251 9.00599 16.251H9.25126C9.09836 15.8659 9 15.4279 9 14.94V12C9 11.1177 9.51571 10.3168 10.3189 9.95168L13.0689 8.70168C13.6605 8.43278 14.3395 8.43278 14.9311 8.70168L15.751 9.07437V5.25C15.751 4.56 15.187 4 14.501 4C14.0882 4 13.7195 4.20282 13.4914 4.51473V3.87068C13.4914 3.11368 12.8777 2.5 12.1207 2.5C11.3637 2.5 10.75 3.11367 10.75 3.87068V2.61394C10.75 1.86066 10.1393 1.25 9.38606 1.25Z" fill="currentColor" fill-opacity="0.3" data-color="color-2" data-stroke="none" stroke="none"></path> <path d="M10.75 7.75V2.5C10.75 1.81 10.186 1.25 9.5 1.25C8.814 1.25 8.25 1.81 8.25 2.5V7.75"></path> <path d="M13.25 7.75V3.75C13.25 3.06 12.686 2.5 12 2.5C11.314 2.5 10.75 3.06 10.75 3.75V7.75"></path> <path d="M15.751 8.8V5.25C15.751 4.56 15.187 4 14.501 4C13.815 4 13.251 4.56 13.251 5.25V7.75"></path> <path d="M8.25 7.75V3.75C8.25 3.06 7.686 2.5 7 2.5C6.314 2.5 5.75 3.06 5.75 3.75V11.215L3.982 8.963C3.556 8.42 2.767 8.328 2.227 8.752C1.687 9.176 1.623 9.883 2.016 10.507L3.976 13.521C5.083 15.223 6.975 16.25 9.005 16.251"></path> <path d="M14 10.75L16.75 12V14.94C16.75 16.48 14 17.25 14 17.25C14 17.25 11.25 16.48 11.25 14.94V12L14 10.75Z"></path></g></svg>