<svg xmlns="http://www.w3.org/2000/svg" viewBox="0 0 18 18"><g fill="currentColor" class="nc-icon-wrapper"><path d="M9,5c-.414,0-.75-.336-.75-.75V1.75c0-.414,.336-.75,.75-.75s.75,.336,.75,.75v2.5c0,.414-.336,.75-.75,.75Z"></path><path d="M12.359,6.391c-.192,0-.384-.073-.53-.22-.293-.293-.293-.768,0-1.061l1.768-1.768c.293-.293,.768-.293,1.061,0s.293,.768,0,1.061l-1.768,1.768c-.146,.146-.338,.22-.53,.22Z" opacity=".88"></path><path d="M16.25,9.75h-2.5c-.414,0-.75-.336-.75-.75s.336-.75,.75-.75h2.5c.414,0,.75,.336,.75,.75s-.336,.75-.75,.75Z" opacity=".75"></path><path d="M14.126,14.876c-.192,0-.384-.073-.53-.22l-1.768-1.768c-.293-.293-.293-.768,0-1.061s.768-.293,1.061,0l1.768,1.768c.293,.293,.293,.768,0,1.061-.146,.146-.338,.22-.53,.22Z" opacity=".63"></path><path d="M9,17c-.414,0-.75-.336-.75-.75v-2.5c0-.414,.336-.75,.75-.75s.75,.336,.75,.75v2.5c0,.414-.336,.75-.75,.75Z" opacity=".5"></path><path d="M3.874,14.876c-.192,0-.384-.073-.53-.22-.293-.293-.293-.768,0-1.061l1.768-1.768c.293-.293,.768-.293,1.061,0s.293,.768,0,1.061l-1.768,1.768c-.146,.146-.338,.22-.53,.22Z" opacity=".38"></path><path d="M4.25,9.75H1.75c-.414,0-.75-.336-.75-.75s.336-.75,.75-.75h2.5c.414,0,.75,.336,.75,.75s-.336,.75-.75,.75Z" opacity=".25"></path><path d="M5.641,6.391c-.192,0-.384-.073-.53-.22l-1.768-1.768c-.293-.293-.293-.768,0-1.061s.768-.293,1.061,0l1.768,1.768c.293,.293,.293,.768,0,1.061-.146,.146-.338,.22-.53,.22Z" opacity=".13"></path></g></svg>