<svg xmlns="http://www.w3.org/2000/svg" viewBox="0 0 18 18"><g stroke-linecap="round" stroke-width="1.5" fill="none" stroke="currentColor" stroke-linejoin="round" class="nc-icon-wrapper"><path d="M7.75 12.75C10.5114 12.75 12.75 10.5114 12.75 7.75C12.75 4.98858 10.5114 2.75 7.75 2.75C4.98858 2.75 2.75 4.98858 2.75 7.75C2.75 10.5114 4.98858 12.75 7.75 12.75Z" fill="currentColor" fill-opacity="0.3" data-color="color-2" data-stroke="none" stroke="none"></path> <path d="M15.25 15.25L11.285 11.285"></path> <path d="M7.75 12.75C10.5114 12.75 12.75 10.5114 12.75 7.75C12.75 4.98858 10.5114 2.75 7.75 2.75C4.98858 2.75 2.75 4.98858 2.75 7.75C2.75 10.5114 4.98858 12.75 7.75 12.75Z"></path> <path d="M7.75 5.25C9.131 5.25 10.25 6.369 10.25 7.75"></path></g></svg>