<svg data-slot="icon" xmlns="http://www.w3.org/2000/svg" viewBox="0 0 18 18"><g stroke-linecap="round" stroke-width="1.5" fill="none" stroke="currentColor" stroke-linejoin="round" class="nc-icon-wrapper"><path fill-rule="evenodd" clip-rule="evenodd" d="M16.25 8.645V9.355L16.252 9.356C16.252 9.866 15.868 10.294 15.362 10.35L14.268 10.472L13.765 11.686L14.452 12.545C14.77 12.943 14.738 13.517 14.378 13.877L13.876 14.379C13.515 14.74 12.942 14.771 12.544 14.453L11.685 13.765L10.471 14.268L10.349 15.362C10.293 15.869 9.86499 16.252 9.35499 16.252H8.64499C8.13499 16.252 7.70699 15.868 7.65099 15.362L7.52899 14.268L6.31499 13.765L5.45599 14.453C5.05799 14.771 4.48399 14.739 4.12399 14.379L3.62199 13.877C3.26099 13.517 3.22999 12.943 3.54799 12.545L4.23499 11.686L3.73199 10.472L2.63799 10.35C2.13099 10.294 1.74799 9.866 1.74799 9.356V8.646C1.74799 8.136 2.13199 7.708 2.63799 7.652L3.73199 7.53L4.23499 6.316L3.54699 5.457C3.22899 5.059 3.26099 4.485 3.62099 4.125L4.12299 3.623C4.48399 3.262 5.05699 3.231 5.45499 3.549L6.31399 4.236L7.52799 3.733L7.64999 2.639C7.70599 2.132 8.13399 1.749 8.64399 1.749H9.35399C9.86399 1.749 10.292 2.133 10.348 2.639L10.47 3.733L11.684 4.236L12.543 3.548C12.941 3.23 13.515 3.262 13.875 3.622L14.377 4.124C14.738 4.485 14.769 5.058 14.451 5.456L13.763 6.315L14.266 7.529L15.36 7.651C15.867 7.707 16.25 8.135 16.25 8.645ZM11.25 9C11.25 10.2426 10.2426 11.25 9 11.25C7.75736 11.25 6.75 10.2426 6.75 9C6.75 7.75736 7.75736 6.75 9 6.75C10.2426 6.75 11.25 7.75736 11.25 9Z" fill="currentColor" fill-opacity="0.3" data-color="color-2" data-stroke="none" stroke="none"></path> <path d="M9 11.25C10.2426 11.25 11.25 10.2426 11.25 9C11.25 7.75736 10.2426 6.75 9 6.75C7.75736 6.75 6.75 7.75736 6.75 9C6.75 10.2426 7.75736 11.25 9 11.25Z"></path> <path d="M16.25 9.355V8.645C16.25 8.135 15.867 7.707 15.36 7.651L14.266 7.529L13.763 6.315L14.451 5.456C14.769 5.058 14.738 4.485 14.377 4.124L13.875 3.622C13.515 3.262 12.941 3.23 12.543 3.548L11.684 4.236L10.47 3.733L10.348 2.639C10.292 2.133 9.86399 1.749 9.35399 1.749H8.64399C8.13399 1.749 7.70599 2.132 7.64999 2.639L7.52799 3.733L6.31399 4.236L5.45499 3.549C5.05699 3.231 4.48399 3.262 4.12299 3.623L3.62099 4.125C3.26099 4.485 3.22899 5.059 3.54699 5.457L4.23499 6.316L3.73199 7.53L2.63799 7.652C2.13199 7.708 1.74799 8.136 1.74799 8.646V9.356C1.74799 9.866 2.13099 10.294 2.63799 10.35L3.73199 10.472L4.23499 11.686L3.54799 12.545C3.22999 12.943 3.26099 13.517 3.62199 13.877L4.12399 14.379C4.48399 14.739 5.05799 14.771 5.45599 14.453L6.31499 13.765L7.52899 14.268L7.65099 15.362C7.70699 15.868 8.13499 16.252 8.64499 16.252H9.35499C9.86499 16.252 10.293 15.869 10.349 15.362L10.471 14.268L11.685 13.765L12.544 14.453C12.942 14.771 13.515 14.74 13.876 14.379L14.378 13.877C14.738 13.517 14.77 12.943 14.452 12.545L13.765 11.686L14.268 10.472L15.362 10.35C15.868 10.294 16.252 9.866 16.252 9.356L16.25 9.355Z"></path></g></svg>