<svg xmlns="http://www.w3.org/2000/svg" viewBox="0 0 20 20"><g class="nc-icon-wrapper"><path d="m16.163,5.273l-5.082-3.267c-.655-.421-1.504-.422-2.163,0l-5.081,3.267h0c-1.15.74-1.837,1.998-1.837,3.365v5.362c0,2.206,1.794,4,4,4h8c2.206,0,4-1.794,4-4v-5.362c0-1.367-.687-2.625-1.837-3.365Zm-6.163.727c1.379,0,2.5,1.122,2.5,2.5s-1.121,2.5-2.5,2.5-2.5-1.122-2.5-2.5,1.121-2.5,2.5-2.5Zm4,10H6c-.245,0-.477-.05-.693-.131.699-2.02,2.551-3.369,4.693-3.369s3.994,1.349,4.693,3.369c-.217.081-.449.131-.693.131Z" stroke-width="0"></path></g></svg>